<mxfile host="app.diagrams.net" modified="2023-12-05T00:05:27.443Z" agent="Mozilla/5.0 (Windows NT 10.0; Win64; x64) AppleWebKit/537.36 (KHTML, like Gecko) Chrome/119.0.0.0 Safari/537.36" etag="qSMyqakzo63bPyOrkehz" version="22.1.5" type="device">
  <diagram name="1 oldal" id="5srvDgW0sAzMnuqV2YLw">
    <mxGraphModel dx="1675" dy="871" grid="0" gridSize="10" guides="1" tooltips="1" connect="1" arrows="1" fold="1" page="0" pageScale="1" pageWidth="1169" pageHeight="827" math="0" shadow="0">
      <root>
        <mxCell id="0" />
        <mxCell id="1" parent="0" />
        <mxCell id="ndynWsvsj6m9hKPy0uNn-172" value="SSSSS" style="endArrow=none;html=1;rounded=0;entryX=0.974;entryY=0.648;entryDx=0;entryDy=0;entryPerimeter=0;exitX=0.5;exitY=0;exitDx=0;exitDy=0;" parent="1" source="ndynWsvsj6m9hKPy0uNn-8" target="ndynWsvsj6m9hKPy0uNn-1" edge="1">
          <mxGeometry width="50" height="50" relative="1" as="geometry">
            <mxPoint x="560.5" y="241" as="sourcePoint" />
            <mxPoint x="1861.5" y="-106" as="targetPoint" />
          </mxGeometry>
        </mxCell>
        <mxCell id="ndynWsvsj6m9hKPy0uNn-168" value="" style="endArrow=none;html=1;rounded=0;entryX=0.038;entryY=0.674;entryDx=0;entryDy=0;entryPerimeter=0;exitX=0.5;exitY=0;exitDx=0;exitDy=0;" parent="1" source="ndynWsvsj6m9hKPy0uNn-6" target="ndynWsvsj6m9hKPy0uNn-1" edge="1">
          <mxGeometry width="50" height="50" relative="1" as="geometry">
            <mxPoint x="1052" y="86" as="sourcePoint" />
            <mxPoint x="1102" y="36" as="targetPoint" />
          </mxGeometry>
        </mxCell>
        <mxCell id="ndynWsvsj6m9hKPy0uNn-169" value="" style="endArrow=none;html=1;rounded=0;exitX=0.5;exitY=0;exitDx=0;exitDy=0;entryX=0.362;entryY=0.966;entryDx=0;entryDy=0;entryPerimeter=0;" parent="1" source="ndynWsvsj6m9hKPy0uNn-2" target="ndynWsvsj6m9hKPy0uNn-1" edge="1">
          <mxGeometry width="50" height="50" relative="1" as="geometry">
            <mxPoint x="-343" y="99" as="sourcePoint" />
            <mxPoint x="1067" y="-135" as="targetPoint" />
          </mxGeometry>
        </mxCell>
        <mxCell id="ndynWsvsj6m9hKPy0uNn-145" value="" style="ellipse;whiteSpace=wrap;html=1;" parent="1" vertex="1">
          <mxGeometry x="-254" y="357.5" width="86" height="49" as="geometry" />
        </mxCell>
        <mxCell id="ndynWsvsj6m9hKPy0uNn-1" value="&lt;font style=&quot;font-size: 30px;&quot;&gt;LoL_WIQPM2&lt;/font&gt;" style="ellipse;whiteSpace=wrap;html=1;" parent="1" vertex="1">
          <mxGeometry x="937" y="-357" width="260" height="138" as="geometry" />
        </mxCell>
        <mxCell id="ndynWsvsj6m9hKPy0uNn-2" value="&lt;font style=&quot;font-size: 26px;&quot;&gt;Játékosok&lt;/font&gt;" style="ellipse;whiteSpace=wrap;html=1;" parent="1" vertex="1">
          <mxGeometry x="411" y="89" width="170" height="90" as="geometry" />
        </mxCell>
        <mxCell id="ndynWsvsj6m9hKPy0uNn-3" value="&lt;font style=&quot;font-size: 26px;&quot;&gt;Csapatok&lt;/font&gt;" style="ellipse;whiteSpace=wrap;html=1;" parent="1" vertex="1">
          <mxGeometry x="1164" y="89" width="170" height="90" as="geometry" />
        </mxCell>
        <mxCell id="ndynWsvsj6m9hKPy0uNn-4" value="&lt;font style=&quot;font-size: 26px;&quot;&gt;Szp_csapatok&lt;/font&gt;" style="ellipse;whiteSpace=wrap;html=1;" parent="1" vertex="1">
          <mxGeometry x="-86" y="89" width="170" height="90" as="geometry" />
        </mxCell>
        <mxCell id="ndynWsvsj6m9hKPy0uNn-5" value="&lt;font style=&quot;font-size: 26px;&quot;&gt;Edzők&lt;/font&gt;" style="ellipse;whiteSpace=wrap;html=1;" parent="1" vertex="1">
          <mxGeometry x="1707" y="89" width="170" height="90" as="geometry" />
        </mxCell>
        <mxCell id="ndynWsvsj6m9hKPy0uNn-6" value="&lt;font style=&quot;font-size: 26px;&quot;&gt;Szponzorok&lt;/font&gt;" style="ellipse;whiteSpace=wrap;html=1;" parent="1" vertex="1">
          <mxGeometry x="-438" y="89" width="170" height="90" as="geometry" />
        </mxCell>
        <mxCell id="ndynWsvsj6m9hKPy0uNn-8" value="&lt;font style=&quot;font-size: 26px;&quot;&gt;Események&lt;/font&gt;" style="ellipse;whiteSpace=wrap;html=1;" parent="1" vertex="1">
          <mxGeometry x="2315" y="89" width="170" height="90" as="geometry" />
        </mxCell>
        <mxCell id="ndynWsvsj6m9hKPy0uNn-10" style="edgeStyle=orthogonalEdgeStyle;rounded=0;orthogonalLoop=1;jettySize=auto;html=1;exitX=0.5;exitY=1;exitDx=0;exitDy=0;" parent="1" source="ndynWsvsj6m9hKPy0uNn-5" target="ndynWsvsj6m9hKPy0uNn-5" edge="1">
          <mxGeometry relative="1" as="geometry" />
        </mxCell>
        <mxCell id="ndynWsvsj6m9hKPy0uNn-16" value="Név" style="ellipse;whiteSpace=wrap;html=1;" parent="1" vertex="1">
          <mxGeometry x="2265" y="362" width="80" height="40" as="geometry" />
        </mxCell>
        <mxCell id="ndynWsvsj6m9hKPy0uNn-17" value="Életkor" style="ellipse;whiteSpace=wrap;html=1;" parent="1" vertex="1">
          <mxGeometry x="786" y="362" width="80" height="40" as="geometry" />
        </mxCell>
        <mxCell id="ndynWsvsj6m9hKPy0uNn-18" value="Karrier kezdete" style="ellipse;whiteSpace=wrap;html=1;" parent="1" vertex="1">
          <mxGeometry x="694" y="362" width="80" height="40" as="geometry" />
        </mxCell>
        <mxCell id="ndynWsvsj6m9hKPy0uNn-19" value="Pozíció" style="ellipse;whiteSpace=wrap;html=1;" parent="1" vertex="1">
          <mxGeometry x="602" y="362" width="80" height="40" as="geometry" />
        </mxCell>
        <mxCell id="ndynWsvsj6m9hKPy0uNn-20" value="Rang" style="ellipse;whiteSpace=wrap;html=1;" parent="1" vertex="1">
          <mxGeometry x="508" y="362" width="80" height="40" as="geometry" />
        </mxCell>
        <mxCell id="ndynWsvsj6m9hKPy0uNn-21" value="Aktív" style="ellipse;whiteSpace=wrap;html=1;" parent="1" vertex="1">
          <mxGeometry x="416" y="362" width="80" height="40" as="geometry" />
        </mxCell>
        <mxCell id="ndynWsvsj6m9hKPy0uNn-22" value="Nemzetiség" style="ellipse;whiteSpace=wrap;html=1;" parent="1" vertex="1">
          <mxGeometry x="315" y="362" width="80" height="40" as="geometry" />
        </mxCell>
        <mxCell id="ndynWsvsj6m9hKPy0uNn-23" value="Név" style="ellipse;whiteSpace=wrap;html=1;" parent="1" vertex="1">
          <mxGeometry x="226" y="362" width="80" height="40" as="geometry" />
        </mxCell>
        <mxCell id="ndynWsvsj6m9hKPy0uNn-25" value="Korábbi csapat" style="ellipse;whiteSpace=wrap;html=1;" parent="1" vertex="1">
          <mxGeometry x="1904" y="362" width="80" height="40" as="geometry" />
        </mxCell>
        <mxCell id="ndynWsvsj6m9hKPy0uNn-26" value="Mióta" style="ellipse;whiteSpace=wrap;html=1;" parent="1" vertex="1">
          <mxGeometry x="-41" y="362" width="80" height="40" as="geometry" />
        </mxCell>
        <mxCell id="ndynWsvsj6m9hKPy0uNn-27" value="Tulajdonos" style="ellipse;whiteSpace=wrap;html=1;" parent="1" vertex="1">
          <mxGeometry x="-251" y="362" width="80" height="40" as="geometry" />
        </mxCell>
        <mxCell id="ndynWsvsj6m9hKPy0uNn-28" value="Ország" style="ellipse;whiteSpace=wrap;html=1;" parent="1" vertex="1">
          <mxGeometry x="-348" y="362" width="80" height="40" as="geometry" />
        </mxCell>
        <mxCell id="ndynWsvsj6m9hKPy0uNn-29" value="Típus" style="ellipse;whiteSpace=wrap;html=1;" parent="1" vertex="1">
          <mxGeometry x="-448" y="362" width="80" height="40" as="geometry" />
        </mxCell>
        <mxCell id="ndynWsvsj6m9hKPy0uNn-32" value="" style="endArrow=none;html=1;rounded=0;exitX=0.5;exitY=0;exitDx=0;exitDy=0;entryX=0.038;entryY=0.687;entryDx=0;entryDy=0;entryPerimeter=0;" parent="1" source="ndynWsvsj6m9hKPy0uNn-146" target="ndynWsvsj6m9hKPy0uNn-6" edge="1">
          <mxGeometry width="50" height="50" relative="1" as="geometry">
            <mxPoint x="-497" y="362.0000000000002" as="sourcePoint" />
            <mxPoint x="512" y="176" as="targetPoint" />
          </mxGeometry>
        </mxCell>
        <mxCell id="ndynWsvsj6m9hKPy0uNn-33" value="" style="endArrow=none;html=1;rounded=0;exitX=0.5;exitY=0;exitDx=0;exitDy=0;entryX=0.715;entryY=0.971;entryDx=0;entryDy=0;entryPerimeter=0;" parent="1" source="ndynWsvsj6m9hKPy0uNn-28" target="ndynWsvsj6m9hKPy0uNn-6" edge="1">
          <mxGeometry width="50" height="50" relative="1" as="geometry">
            <mxPoint x="-474" y="372" as="sourcePoint" />
            <mxPoint x="-422" y="161" as="targetPoint" />
          </mxGeometry>
        </mxCell>
        <mxCell id="ndynWsvsj6m9hKPy0uNn-34" value="" style="endArrow=none;html=1;rounded=0;exitX=0.5;exitY=0;exitDx=0;exitDy=0;entryX=0.318;entryY=0.989;entryDx=0;entryDy=0;entryPerimeter=0;" parent="1" source="ndynWsvsj6m9hKPy0uNn-29" target="ndynWsvsj6m9hKPy0uNn-6" edge="1">
          <mxGeometry width="50" height="50" relative="1" as="geometry">
            <mxPoint x="-464" y="382" as="sourcePoint" />
            <mxPoint x="-412" y="171" as="targetPoint" />
          </mxGeometry>
        </mxCell>
        <mxCell id="ndynWsvsj6m9hKPy0uNn-35" value="" style="endArrow=none;html=1;rounded=0;exitX=0.5;exitY=0;exitDx=0;exitDy=0;entryX=0.967;entryY=0.667;entryDx=0;entryDy=0;entryPerimeter=0;" parent="1" source="ndynWsvsj6m9hKPy0uNn-27" target="ndynWsvsj6m9hKPy0uNn-6" edge="1">
          <mxGeometry width="50" height="50" relative="1" as="geometry">
            <mxPoint x="-214" y="346" as="sourcePoint" />
            <mxPoint x="-246" y="145" as="targetPoint" />
          </mxGeometry>
        </mxCell>
        <mxCell id="ndynWsvsj6m9hKPy0uNn-36" value="" style="endArrow=none;html=1;rounded=0;exitX=0.5;exitY=0;exitDx=0;exitDy=0;entryX=0.5;entryY=1;entryDx=0;entryDy=0;" parent="1" source="ndynWsvsj6m9hKPy0uNn-26" target="ndynWsvsj6m9hKPy0uNn-4" edge="1">
          <mxGeometry width="50" height="50" relative="1" as="geometry">
            <mxPoint x="528" y="226" as="sourcePoint" />
            <mxPoint x="63" y="226" as="targetPoint" />
          </mxGeometry>
        </mxCell>
        <mxCell id="ndynWsvsj6m9hKPy0uNn-38" value="Régió" style="ellipse;whiteSpace=wrap;html=1;" parent="1" vertex="1">
          <mxGeometry x="1351" y="362" width="80" height="40" as="geometry" />
        </mxCell>
        <mxCell id="ndynWsvsj6m9hKPy0uNn-39" value="Rang" style="ellipse;whiteSpace=wrap;html=1;" parent="1" vertex="1">
          <mxGeometry x="1256" y="362" width="80" height="40" as="geometry" />
        </mxCell>
        <mxCell id="ndynWsvsj6m9hKPy0uNn-40" value="Nemzetiség" style="ellipse;whiteSpace=wrap;html=1;" parent="1" vertex="1">
          <mxGeometry x="1162" y="362" width="80" height="40" as="geometry" />
        </mxCell>
        <mxCell id="ndynWsvsj6m9hKPy0uNn-44" value="" style="endArrow=none;html=1;rounded=0;exitX=0.035;exitY=0.71;exitDx=0;exitDy=0;exitPerimeter=0;entryX=0.5;entryY=0;entryDx=0;entryDy=0;" parent="1" source="ndynWsvsj6m9hKPy0uNn-2" target="ndynWsvsj6m9hKPy0uNn-148" edge="1">
          <mxGeometry width="50" height="50" relative="1" as="geometry">
            <mxPoint x="720" y="148" as="sourcePoint" />
            <mxPoint x="173.99999999999977" y="362" as="targetPoint" />
          </mxGeometry>
        </mxCell>
        <mxCell id="ndynWsvsj6m9hKPy0uNn-45" value="" style="endArrow=none;html=1;rounded=0;entryX=0.5;entryY=0;entryDx=0;entryDy=0;exitX=0.333;exitY=0.967;exitDx=0;exitDy=0;exitPerimeter=0;" parent="1" source="ndynWsvsj6m9hKPy0uNn-2" target="ndynWsvsj6m9hKPy0uNn-22" edge="1">
          <mxGeometry width="50" height="50" relative="1" as="geometry">
            <mxPoint x="470" y="207" as="sourcePoint" />
            <mxPoint x="184" y="372" as="targetPoint" />
          </mxGeometry>
        </mxCell>
        <mxCell id="ndynWsvsj6m9hKPy0uNn-46" value="" style="endArrow=none;html=1;rounded=0;exitX=0.548;exitY=0.986;exitDx=0;exitDy=0;exitPerimeter=0;entryX=0.5;entryY=0;entryDx=0;entryDy=0;" parent="1" source="ndynWsvsj6m9hKPy0uNn-2" target="ndynWsvsj6m9hKPy0uNn-21" edge="1">
          <mxGeometry width="50" height="50" relative="1" as="geometry">
            <mxPoint x="437" y="173" as="sourcePoint" />
            <mxPoint x="194" y="382" as="targetPoint" />
          </mxGeometry>
        </mxCell>
        <mxCell id="ndynWsvsj6m9hKPy0uNn-47" value="" style="endArrow=none;html=1;rounded=0;exitX=0.736;exitY=0.937;exitDx=0;exitDy=0;exitPerimeter=0;entryX=0.5;entryY=0;entryDx=0;entryDy=0;" parent="1" source="ndynWsvsj6m9hKPy0uNn-2" target="ndynWsvsj6m9hKPy0uNn-20" edge="1">
          <mxGeometry width="50" height="50" relative="1" as="geometry">
            <mxPoint x="447" y="183" as="sourcePoint" />
            <mxPoint x="204" y="392" as="targetPoint" />
          </mxGeometry>
        </mxCell>
        <mxCell id="ndynWsvsj6m9hKPy0uNn-48" value="" style="endArrow=none;html=1;rounded=0;exitX=1;exitY=1;exitDx=0;exitDy=0;entryX=0.5;entryY=0;entryDx=0;entryDy=0;" parent="1" source="ndynWsvsj6m9hKPy0uNn-2" target="ndynWsvsj6m9hKPy0uNn-19" edge="1">
          <mxGeometry width="50" height="50" relative="1" as="geometry">
            <mxPoint x="457" y="193" as="sourcePoint" />
            <mxPoint x="214" y="402" as="targetPoint" />
          </mxGeometry>
        </mxCell>
        <mxCell id="ndynWsvsj6m9hKPy0uNn-49" value="" style="endArrow=none;html=1;rounded=0;exitX=0.929;exitY=0.759;exitDx=0;exitDy=0;exitPerimeter=0;entryX=0.5;entryY=0;entryDx=0;entryDy=0;" parent="1" source="ndynWsvsj6m9hKPy0uNn-2" target="ndynWsvsj6m9hKPy0uNn-18" edge="1">
          <mxGeometry width="50" height="50" relative="1" as="geometry">
            <mxPoint x="467" y="203" as="sourcePoint" />
            <mxPoint x="224" y="412" as="targetPoint" />
          </mxGeometry>
        </mxCell>
        <mxCell id="ndynWsvsj6m9hKPy0uNn-50" value="" style="endArrow=none;html=1;rounded=0;exitX=0.982;exitY=0.631;exitDx=0;exitDy=0;exitPerimeter=0;entryX=0.5;entryY=0;entryDx=0;entryDy=0;" parent="1" source="ndynWsvsj6m9hKPy0uNn-2" target="ndynWsvsj6m9hKPy0uNn-17" edge="1">
          <mxGeometry width="50" height="50" relative="1" as="geometry">
            <mxPoint x="477" y="213" as="sourcePoint" />
            <mxPoint x="234" y="422" as="targetPoint" />
          </mxGeometry>
        </mxCell>
        <mxCell id="ndynWsvsj6m9hKPy0uNn-51" value="" style="endArrow=none;html=1;rounded=0;entryX=0.5;entryY=0;entryDx=0;entryDy=0;exitX=0;exitY=1;exitDx=0;exitDy=0;" parent="1" source="ndynWsvsj6m9hKPy0uNn-2" target="ndynWsvsj6m9hKPy0uNn-23" edge="1">
          <mxGeometry width="50" height="50" relative="1" as="geometry">
            <mxPoint x="478" y="186" as="sourcePoint" />
            <mxPoint x="365" y="372" as="targetPoint" />
          </mxGeometry>
        </mxCell>
        <mxCell id="ndynWsvsj6m9hKPy0uNn-52" value="" style="endArrow=none;html=1;rounded=0;exitX=0.5;exitY=0;exitDx=0;exitDy=0;entryX=0;entryY=1;entryDx=0;entryDy=0;" parent="1" source="ndynWsvsj6m9hKPy0uNn-149" target="ndynWsvsj6m9hKPy0uNn-3" edge="1">
          <mxGeometry width="50" height="50" relative="1" as="geometry">
            <mxPoint x="1111" y="362" as="sourcePoint" />
            <mxPoint x="1204" y="209" as="targetPoint" />
          </mxGeometry>
        </mxCell>
        <mxCell id="ndynWsvsj6m9hKPy0uNn-53" value="" style="endArrow=none;html=1;rounded=0;exitX=0.5;exitY=0;exitDx=0;exitDy=0;entryX=0.397;entryY=0.985;entryDx=0;entryDy=0;entryPerimeter=0;" parent="1" source="ndynWsvsj6m9hKPy0uNn-40" target="ndynWsvsj6m9hKPy0uNn-3" edge="1">
          <mxGeometry width="50" height="50" relative="1" as="geometry">
            <mxPoint x="1121" y="372" as="sourcePoint" />
            <mxPoint x="1199" y="176" as="targetPoint" />
          </mxGeometry>
        </mxCell>
        <mxCell id="ndynWsvsj6m9hKPy0uNn-54" value="" style="endArrow=none;html=1;rounded=0;exitX=0.5;exitY=0;exitDx=0;exitDy=0;entryX=0.616;entryY=0.985;entryDx=0;entryDy=0;entryPerimeter=0;" parent="1" source="ndynWsvsj6m9hKPy0uNn-39" target="ndynWsvsj6m9hKPy0uNn-3" edge="1">
          <mxGeometry width="50" height="50" relative="1" as="geometry">
            <mxPoint x="1131" y="382" as="sourcePoint" />
            <mxPoint x="1209" y="186" as="targetPoint" />
          </mxGeometry>
        </mxCell>
        <mxCell id="ndynWsvsj6m9hKPy0uNn-55" value="" style="endArrow=none;html=1;rounded=0;exitX=0.5;exitY=0;exitDx=0;exitDy=0;entryX=1;entryY=1;entryDx=0;entryDy=0;" parent="1" source="ndynWsvsj6m9hKPy0uNn-38" target="ndynWsvsj6m9hKPy0uNn-3" edge="1">
          <mxGeometry width="50" height="50" relative="1" as="geometry">
            <mxPoint x="1141" y="392" as="sourcePoint" />
            <mxPoint x="1219" y="196" as="targetPoint" />
          </mxGeometry>
        </mxCell>
        <mxCell id="ndynWsvsj6m9hKPy0uNn-56" value="Mióta" style="ellipse;whiteSpace=wrap;html=1;" parent="1" vertex="1">
          <mxGeometry x="1802" y="362" width="80" height="40" as="geometry" />
        </mxCell>
        <mxCell id="ndynWsvsj6m9hKPy0uNn-57" value="Név" style="ellipse;whiteSpace=wrap;html=1;" parent="1" vertex="1">
          <mxGeometry x="1701" y="362" width="80" height="40" as="geometry" />
        </mxCell>
        <mxCell id="ndynWsvsj6m9hKPy0uNn-59" value="" style="endArrow=none;html=1;rounded=0;exitX=0.5;exitY=0;exitDx=0;exitDy=0;entryX=1;entryY=1;entryDx=0;entryDy=0;" parent="1" source="ndynWsvsj6m9hKPy0uNn-25" target="ndynWsvsj6m9hKPy0uNn-5" edge="1">
          <mxGeometry width="50" height="50" relative="1" as="geometry">
            <mxPoint x="1121" y="372" as="sourcePoint" />
            <mxPoint x="1199" y="176" as="targetPoint" />
          </mxGeometry>
        </mxCell>
        <mxCell id="ndynWsvsj6m9hKPy0uNn-60" value="" style="endArrow=none;html=1;rounded=0;exitX=0.5;exitY=0;exitDx=0;exitDy=0;entryX=0.345;entryY=0.989;entryDx=0;entryDy=0;entryPerimeter=0;" parent="1" source="ndynWsvsj6m9hKPy0uNn-57" target="ndynWsvsj6m9hKPy0uNn-5" edge="1">
          <mxGeometry width="50" height="50" relative="1" as="geometry">
            <mxPoint x="1131" y="382" as="sourcePoint" />
            <mxPoint x="1209" y="186" as="targetPoint" />
          </mxGeometry>
        </mxCell>
        <mxCell id="ndynWsvsj6m9hKPy0uNn-61" value="" style="endArrow=none;html=1;rounded=0;exitX=0.5;exitY=0;exitDx=0;exitDy=0;entryX=0.665;entryY=0.971;entryDx=0;entryDy=0;entryPerimeter=0;" parent="1" source="ndynWsvsj6m9hKPy0uNn-56" target="ndynWsvsj6m9hKPy0uNn-5" edge="1">
          <mxGeometry width="50" height="50" relative="1" as="geometry">
            <mxPoint x="1141" y="392" as="sourcePoint" />
            <mxPoint x="1219" y="196" as="targetPoint" />
          </mxGeometry>
        </mxCell>
        <mxCell id="ndynWsvsj6m9hKPy0uNn-62" value="" style="endArrow=none;html=1;rounded=0;entryX=0;entryY=1;entryDx=0;entryDy=0;exitX=0.5;exitY=0;exitDx=0;exitDy=0;" parent="1" source="ndynWsvsj6m9hKPy0uNn-150" target="ndynWsvsj6m9hKPy0uNn-5" edge="1">
          <mxGeometry width="50" height="50" relative="1" as="geometry">
            <mxPoint x="1640" y="362" as="sourcePoint" />
            <mxPoint x="1717" y="169" as="targetPoint" />
          </mxGeometry>
        </mxCell>
        <mxCell id="ndynWsvsj6m9hKPy0uNn-63" value="Év" style="ellipse;whiteSpace=wrap;html=1;" parent="1" vertex="1">
          <mxGeometry x="2360" y="362" width="80" height="40" as="geometry" />
        </mxCell>
        <mxCell id="ndynWsvsj6m9hKPy0uNn-64" value="Nyeremény" style="ellipse;whiteSpace=wrap;html=1;" parent="1" vertex="1">
          <mxGeometry x="2455" y="362" width="80" height="40" as="geometry" />
        </mxCell>
        <mxCell id="ndynWsvsj6m9hKPy0uNn-65" value="Helyszín" style="ellipse;whiteSpace=wrap;html=1;" parent="1" vertex="1">
          <mxGeometry x="2629" y="362" width="80" height="40" as="geometry" />
        </mxCell>
        <mxCell id="ndynWsvsj6m9hKPy0uNn-67" value="" style="endArrow=none;html=1;rounded=0;entryX=0;entryY=1;entryDx=0;entryDy=0;exitX=0.5;exitY=0;exitDx=0;exitDy=0;" parent="1" source="ndynWsvsj6m9hKPy0uNn-151" target="ndynWsvsj6m9hKPy0uNn-8" edge="1">
          <mxGeometry width="50" height="50" relative="1" as="geometry">
            <mxPoint x="2208.9999999999995" y="362" as="sourcePoint" />
            <mxPoint x="2249" y="252" as="targetPoint" />
          </mxGeometry>
        </mxCell>
        <mxCell id="ndynWsvsj6m9hKPy0uNn-68" value="" style="endArrow=none;html=1;rounded=0;entryX=0.316;entryY=0.971;entryDx=0;entryDy=0;exitX=0.5;exitY=0;exitDx=0;exitDy=0;entryPerimeter=0;" parent="1" source="ndynWsvsj6m9hKPy0uNn-16" target="ndynWsvsj6m9hKPy0uNn-8" edge="1">
          <mxGeometry width="50" height="50" relative="1" as="geometry">
            <mxPoint x="2219" y="372" as="sourcePoint" />
            <mxPoint x="2350" y="176" as="targetPoint" />
          </mxGeometry>
        </mxCell>
        <mxCell id="ndynWsvsj6m9hKPy0uNn-69" value="" style="endArrow=none;html=1;rounded=0;entryX=1;entryY=1;entryDx=0;entryDy=0;exitX=0.5;exitY=0;exitDx=0;exitDy=0;" parent="1" source="ndynWsvsj6m9hKPy0uNn-65" target="ndynWsvsj6m9hKPy0uNn-8" edge="1">
          <mxGeometry width="50" height="50" relative="1" as="geometry">
            <mxPoint x="2229" y="382" as="sourcePoint" />
            <mxPoint x="2360" y="186" as="targetPoint" />
          </mxGeometry>
        </mxCell>
        <mxCell id="ndynWsvsj6m9hKPy0uNn-70" value="" style="endArrow=none;html=1;rounded=0;entryX=0.5;entryY=1;entryDx=0;entryDy=0;exitX=0.5;exitY=0;exitDx=0;exitDy=0;" parent="1" source="ndynWsvsj6m9hKPy0uNn-63" target="ndynWsvsj6m9hKPy0uNn-8" edge="1">
          <mxGeometry width="50" height="50" relative="1" as="geometry">
            <mxPoint x="2239" y="392" as="sourcePoint" />
            <mxPoint x="2370" y="196" as="targetPoint" />
          </mxGeometry>
        </mxCell>
        <mxCell id="ndynWsvsj6m9hKPy0uNn-71" value="" style="endArrow=none;html=1;rounded=0;entryX=0.693;entryY=0.971;entryDx=0;entryDy=0;exitX=0.5;exitY=0;exitDx=0;exitDy=0;entryPerimeter=0;" parent="1" source="ndynWsvsj6m9hKPy0uNn-64" target="ndynWsvsj6m9hKPy0uNn-8" edge="1">
          <mxGeometry width="50" height="50" relative="1" as="geometry">
            <mxPoint x="2315" y="372" as="sourcePoint" />
            <mxPoint x="2379" y="186" as="targetPoint" />
          </mxGeometry>
        </mxCell>
        <mxCell id="ndynWsvsj6m9hKPy0uNn-72" value="Ország" style="ellipse;whiteSpace=wrap;html=1;" parent="1" vertex="1">
          <mxGeometry x="2538" y="512.5" width="80" height="40" as="geometry" />
        </mxCell>
        <mxCell id="ndynWsvsj6m9hKPy0uNn-73" value="Hely" style="ellipse;whiteSpace=wrap;html=1;" parent="1" vertex="1">
          <mxGeometry x="2720" y="512" width="80" height="40" as="geometry" />
        </mxCell>
        <mxCell id="ndynWsvsj6m9hKPy0uNn-74" value="Város" style="ellipse;whiteSpace=wrap;html=1;" parent="1" vertex="1">
          <mxGeometry x="2629" y="512.5" width="80" height="40" as="geometry" />
        </mxCell>
        <mxCell id="ndynWsvsj6m9hKPy0uNn-75" value="" style="endArrow=none;html=1;rounded=0;entryX=0;entryY=1;entryDx=0;entryDy=0;exitX=0.5;exitY=0;exitDx=0;exitDy=0;" parent="1" source="ndynWsvsj6m9hKPy0uNn-72" target="ndynWsvsj6m9hKPy0uNn-65" edge="1">
          <mxGeometry width="50" height="50" relative="1" as="geometry">
            <mxPoint x="2199" y="608" as="sourcePoint" />
            <mxPoint x="2249" y="558" as="targetPoint" />
          </mxGeometry>
        </mxCell>
        <mxCell id="ndynWsvsj6m9hKPy0uNn-76" value="" style="endArrow=none;html=1;rounded=0;entryX=1;entryY=1;entryDx=0;entryDy=0;exitX=0.5;exitY=0;exitDx=0;exitDy=0;" parent="1" source="ndynWsvsj6m9hKPy0uNn-73" target="ndynWsvsj6m9hKPy0uNn-65" edge="1">
          <mxGeometry width="50" height="50" relative="1" as="geometry">
            <mxPoint x="2209" y="618" as="sourcePoint" />
            <mxPoint x="2259" y="568" as="targetPoint" />
          </mxGeometry>
        </mxCell>
        <mxCell id="ndynWsvsj6m9hKPy0uNn-77" value="" style="endArrow=none;html=1;rounded=0;entryX=0.5;entryY=1;entryDx=0;entryDy=0;exitX=0.5;exitY=0;exitDx=0;exitDy=0;" parent="1" source="ndynWsvsj6m9hKPy0uNn-74" target="ndynWsvsj6m9hKPy0uNn-65" edge="1">
          <mxGeometry width="50" height="50" relative="1" as="geometry">
            <mxPoint x="2219" y="628" as="sourcePoint" />
            <mxPoint x="2269" y="578" as="targetPoint" />
          </mxGeometry>
        </mxCell>
        <mxCell id="ndynWsvsj6m9hKPy0uNn-82" value="" style="rounded=0;whiteSpace=wrap;html=1;" parent="1" vertex="1">
          <mxGeometry x="813.5" y="510" width="25" height="45" as="geometry" />
        </mxCell>
        <mxCell id="ndynWsvsj6m9hKPy0uNn-83" value="" style="rounded=0;whiteSpace=wrap;html=1;" parent="1" vertex="1">
          <mxGeometry x="-420.5" y="510" width="25" height="45" as="geometry" />
        </mxCell>
        <mxCell id="ndynWsvsj6m9hKPy0uNn-84" value="" style="rounded=0;whiteSpace=wrap;html=1;" parent="1" vertex="1">
          <mxGeometry x="-320.5" y="510" width="25" height="45" as="geometry" />
        </mxCell>
        <mxCell id="ndynWsvsj6m9hKPy0uNn-85" value="" style="rounded=0;whiteSpace=wrap;html=1;" parent="1" vertex="1">
          <mxGeometry x="-223.5" y="510" width="25" height="45" as="geometry" />
        </mxCell>
        <mxCell id="ndynWsvsj6m9hKPy0uNn-86" value="" style="rounded=0;whiteSpace=wrap;html=1;" parent="1" vertex="1">
          <mxGeometry x="443.5" y="510" width="25" height="45" as="geometry" />
        </mxCell>
        <mxCell id="ndynWsvsj6m9hKPy0uNn-87" value="" style="rounded=0;whiteSpace=wrap;html=1;" parent="1" vertex="1">
          <mxGeometry x="535.5" y="510" width="25" height="45" as="geometry" />
        </mxCell>
        <mxCell id="ndynWsvsj6m9hKPy0uNn-89" value="" style="rounded=0;whiteSpace=wrap;html=1;" parent="1" vertex="1">
          <mxGeometry x="253.5" y="510" width="25" height="45" as="geometry" />
        </mxCell>
        <mxCell id="ndynWsvsj6m9hKPy0uNn-90" value="" style="rounded=0;whiteSpace=wrap;html=1;" parent="1" vertex="1">
          <mxGeometry x="629.5" y="510" width="25" height="45" as="geometry" />
        </mxCell>
        <mxCell id="ndynWsvsj6m9hKPy0uNn-91" value="" style="rounded=0;whiteSpace=wrap;html=1;" parent="1" vertex="1">
          <mxGeometry x="721.5" y="510" width="25" height="45" as="geometry" />
        </mxCell>
        <mxCell id="ndynWsvsj6m9hKPy0uNn-92" value="" style="rounded=0;whiteSpace=wrap;html=1;" parent="1" vertex="1">
          <mxGeometry x="342.5" y="510" width="25" height="45" as="geometry" />
        </mxCell>
        <mxCell id="ndynWsvsj6m9hKPy0uNn-93" value="" style="rounded=0;whiteSpace=wrap;html=1;" parent="1" vertex="1">
          <mxGeometry x="-13.5" y="510" width="25" height="45" as="geometry" />
        </mxCell>
        <mxCell id="ndynWsvsj6m9hKPy0uNn-96" value="" style="rounded=0;whiteSpace=wrap;html=1;" parent="1" vertex="1">
          <mxGeometry x="2482.5" y="510" width="25" height="45" as="geometry" />
        </mxCell>
        <mxCell id="ndynWsvsj6m9hKPy0uNn-97" value="" style="rounded=0;whiteSpace=wrap;html=1;" parent="1" vertex="1">
          <mxGeometry x="1378.5" y="509.5" width="25" height="45" as="geometry" />
        </mxCell>
        <mxCell id="ndynWsvsj6m9hKPy0uNn-98" value="" style="rounded=0;whiteSpace=wrap;html=1;" parent="1" vertex="1">
          <mxGeometry x="1283.5" y="509.5" width="25" height="45" as="geometry" />
        </mxCell>
        <mxCell id="ndynWsvsj6m9hKPy0uNn-99" value="" style="rounded=0;whiteSpace=wrap;html=1;" parent="1" vertex="1">
          <mxGeometry x="1189.5" y="510" width="25" height="45" as="geometry" />
        </mxCell>
        <mxCell id="ndynWsvsj6m9hKPy0uNn-104" value="" style="rounded=0;whiteSpace=wrap;html=1;" parent="1" vertex="1">
          <mxGeometry x="2387.5" y="512" width="25" height="45" as="geometry" />
        </mxCell>
        <mxCell id="ndynWsvsj6m9hKPy0uNn-105" value="" style="rounded=0;whiteSpace=wrap;html=1;" parent="1" vertex="1">
          <mxGeometry x="2292.5" y="512" width="25" height="45" as="geometry" />
        </mxCell>
        <mxCell id="ndynWsvsj6m9hKPy0uNn-107" value="" style="rounded=0;whiteSpace=wrap;html=1;" parent="1" vertex="1">
          <mxGeometry x="1931.5" y="512" width="25" height="45" as="geometry" />
        </mxCell>
        <mxCell id="ndynWsvsj6m9hKPy0uNn-108" value="" style="rounded=0;whiteSpace=wrap;html=1;" parent="1" vertex="1">
          <mxGeometry x="1829.5" y="510" width="25" height="45" as="geometry" />
        </mxCell>
        <mxCell id="ndynWsvsj6m9hKPy0uNn-109" value="" style="rounded=0;whiteSpace=wrap;html=1;" parent="1" vertex="1">
          <mxGeometry x="1728.5" y="510" width="25" height="45" as="geometry" />
        </mxCell>
        <mxCell id="ndynWsvsj6m9hKPy0uNn-110" value="" style="rounded=0;whiteSpace=wrap;html=1;" parent="1" vertex="1">
          <mxGeometry x="2565.5" y="621" width="25" height="45" as="geometry" />
        </mxCell>
        <mxCell id="ndynWsvsj6m9hKPy0uNn-111" value="" style="rounded=0;whiteSpace=wrap;html=1;" parent="1" vertex="1">
          <mxGeometry x="2656.5" y="621" width="25" height="45" as="geometry" />
        </mxCell>
        <mxCell id="ndynWsvsj6m9hKPy0uNn-112" value="" style="rounded=0;whiteSpace=wrap;html=1;" parent="1" vertex="1">
          <mxGeometry x="2747.5" y="621" width="25" height="45" as="geometry" />
        </mxCell>
        <mxCell id="ndynWsvsj6m9hKPy0uNn-114" value="" style="endArrow=none;html=1;rounded=0;exitX=0.5;exitY=0;exitDx=0;exitDy=0;entryX=0.5;entryY=1;entryDx=0;entryDy=0;" parent="1" edge="1">
          <mxGeometry width="50" height="50" relative="1" as="geometry">
            <mxPoint x="354.57000000000005" y="510" as="sourcePoint" />
            <mxPoint x="354.57000000000005" y="402" as="targetPoint" />
          </mxGeometry>
        </mxCell>
        <mxCell id="ndynWsvsj6m9hKPy0uNn-115" value="" style="endArrow=none;html=1;rounded=0;exitX=0.5;exitY=0;exitDx=0;exitDy=0;entryX=0.5;entryY=1;entryDx=0;entryDy=0;" parent="1" edge="1">
          <mxGeometry width="50" height="50" relative="1" as="geometry">
            <mxPoint x="265.57000000000005" y="510" as="sourcePoint" />
            <mxPoint x="265.57000000000005" y="402" as="targetPoint" />
          </mxGeometry>
        </mxCell>
        <mxCell id="ndynWsvsj6m9hKPy0uNn-117" value="" style="endArrow=none;html=1;rounded=0;exitX=0.5;exitY=0;exitDx=0;exitDy=0;entryX=0.5;entryY=1;entryDx=0;entryDy=0;" parent="1" edge="1">
          <mxGeometry width="50" height="50" relative="1" as="geometry">
            <mxPoint x="-1.4300000000000068" y="510" as="sourcePoint" />
            <mxPoint x="-1.4300000000000068" y="402" as="targetPoint" />
          </mxGeometry>
        </mxCell>
        <mxCell id="ndynWsvsj6m9hKPy0uNn-118" value="" style="endArrow=none;html=1;rounded=0;exitX=0.5;exitY=0;exitDx=0;exitDy=0;entryX=0.5;entryY=1;entryDx=0;entryDy=0;" parent="1" edge="1">
          <mxGeometry width="50" height="50" relative="1" as="geometry">
            <mxPoint x="-211.43" y="510" as="sourcePoint" />
            <mxPoint x="-211.43" y="402" as="targetPoint" />
          </mxGeometry>
        </mxCell>
        <mxCell id="ndynWsvsj6m9hKPy0uNn-119" value="" style="endArrow=none;html=1;rounded=0;exitX=0.5;exitY=0;exitDx=0;exitDy=0;entryX=0.5;entryY=1;entryDx=0;entryDy=0;" parent="1" edge="1">
          <mxGeometry width="50" height="50" relative="1" as="geometry">
            <mxPoint x="-308.43" y="510" as="sourcePoint" />
            <mxPoint x="-308.43" y="402" as="targetPoint" />
          </mxGeometry>
        </mxCell>
        <mxCell id="ndynWsvsj6m9hKPy0uNn-120" value="" style="endArrow=none;html=1;rounded=0;exitX=0.5;exitY=0;exitDx=0;exitDy=0;entryX=0.5;entryY=1;entryDx=0;entryDy=0;" parent="1" edge="1">
          <mxGeometry width="50" height="50" relative="1" as="geometry">
            <mxPoint x="-408.43" y="510" as="sourcePoint" />
            <mxPoint x="-408.43" y="402" as="targetPoint" />
          </mxGeometry>
        </mxCell>
        <mxCell id="ndynWsvsj6m9hKPy0uNn-123" value="" style="endArrow=none;html=1;rounded=0;exitX=0.5;exitY=0;exitDx=0;exitDy=0;entryX=0.5;entryY=1;entryDx=0;entryDy=0;" parent="1" edge="1">
          <mxGeometry width="50" height="50" relative="1" as="geometry">
            <mxPoint x="825.57" y="510" as="sourcePoint" />
            <mxPoint x="825.57" y="402" as="targetPoint" />
          </mxGeometry>
        </mxCell>
        <mxCell id="ndynWsvsj6m9hKPy0uNn-124" value="" style="endArrow=none;html=1;rounded=0;exitX=0.5;exitY=0;exitDx=0;exitDy=0;entryX=0.5;entryY=1;entryDx=0;entryDy=0;" parent="1" edge="1">
          <mxGeometry width="50" height="50" relative="1" as="geometry">
            <mxPoint x="733.57" y="510" as="sourcePoint" />
            <mxPoint x="733.57" y="402" as="targetPoint" />
          </mxGeometry>
        </mxCell>
        <mxCell id="ndynWsvsj6m9hKPy0uNn-125" value="" style="endArrow=none;html=1;rounded=0;exitX=0.5;exitY=0;exitDx=0;exitDy=0;entryX=0.5;entryY=1;entryDx=0;entryDy=0;" parent="1" edge="1">
          <mxGeometry width="50" height="50" relative="1" as="geometry">
            <mxPoint x="641.57" y="510" as="sourcePoint" />
            <mxPoint x="641.57" y="402" as="targetPoint" />
          </mxGeometry>
        </mxCell>
        <mxCell id="ndynWsvsj6m9hKPy0uNn-126" value="" style="endArrow=none;html=1;rounded=0;exitX=0.5;exitY=0;exitDx=0;exitDy=0;entryX=0.5;entryY=1;entryDx=0;entryDy=0;" parent="1" edge="1">
          <mxGeometry width="50" height="50" relative="1" as="geometry">
            <mxPoint x="547.57" y="510" as="sourcePoint" />
            <mxPoint x="547.57" y="402" as="targetPoint" />
          </mxGeometry>
        </mxCell>
        <mxCell id="ndynWsvsj6m9hKPy0uNn-127" value="" style="endArrow=none;html=1;rounded=0;exitX=0.5;exitY=0;exitDx=0;exitDy=0;entryX=0.5;entryY=1;entryDx=0;entryDy=0;" parent="1" edge="1">
          <mxGeometry width="50" height="50" relative="1" as="geometry">
            <mxPoint x="455.57000000000005" y="510" as="sourcePoint" />
            <mxPoint x="455.57000000000005" y="402" as="targetPoint" />
          </mxGeometry>
        </mxCell>
        <mxCell id="ndynWsvsj6m9hKPy0uNn-128" value="" style="endArrow=none;html=1;rounded=0;exitX=0.5;exitY=0;exitDx=0;exitDy=0;entryX=0.5;entryY=1;entryDx=0;entryDy=0;" parent="1" edge="1">
          <mxGeometry width="50" height="50" relative="1" as="geometry">
            <mxPoint x="1390.57" y="509.5" as="sourcePoint" />
            <mxPoint x="1390.57" y="401.5" as="targetPoint" />
          </mxGeometry>
        </mxCell>
        <mxCell id="ndynWsvsj6m9hKPy0uNn-129" value="" style="endArrow=none;html=1;rounded=0;exitX=0.5;exitY=0;exitDx=0;exitDy=0;entryX=0.5;entryY=1;entryDx=0;entryDy=0;" parent="1" edge="1">
          <mxGeometry width="50" height="50" relative="1" as="geometry">
            <mxPoint x="1295.57" y="510" as="sourcePoint" />
            <mxPoint x="1295.57" y="402" as="targetPoint" />
          </mxGeometry>
        </mxCell>
        <mxCell id="ndynWsvsj6m9hKPy0uNn-130" value="" style="endArrow=none;html=1;rounded=0;exitX=0.5;exitY=0;exitDx=0;exitDy=0;entryX=0.5;entryY=1;entryDx=0;entryDy=0;" parent="1" edge="1">
          <mxGeometry width="50" height="50" relative="1" as="geometry">
            <mxPoint x="1201.57" y="510" as="sourcePoint" />
            <mxPoint x="1201.57" y="402" as="targetPoint" />
          </mxGeometry>
        </mxCell>
        <mxCell id="ndynWsvsj6m9hKPy0uNn-134" value="" style="endArrow=none;html=1;rounded=0;exitX=0.5;exitY=0;exitDx=0;exitDy=0;entryX=0.5;entryY=1;entryDx=0;entryDy=0;" parent="1" edge="1">
          <mxGeometry width="50" height="50" relative="1" as="geometry">
            <mxPoint x="1943.57" y="512" as="sourcePoint" />
            <mxPoint x="1943.57" y="404" as="targetPoint" />
          </mxGeometry>
        </mxCell>
        <mxCell id="ndynWsvsj6m9hKPy0uNn-135" value="" style="endArrow=none;html=1;rounded=0;exitX=0.5;exitY=0;exitDx=0;exitDy=0;entryX=0.5;entryY=1;entryDx=0;entryDy=0;" parent="1" edge="1">
          <mxGeometry width="50" height="50" relative="1" as="geometry">
            <mxPoint x="1841.57" y="510" as="sourcePoint" />
            <mxPoint x="1841.57" y="402" as="targetPoint" />
          </mxGeometry>
        </mxCell>
        <mxCell id="ndynWsvsj6m9hKPy0uNn-136" value="" style="endArrow=none;html=1;rounded=0;exitX=0.5;exitY=0;exitDx=0;exitDy=0;entryX=0.5;entryY=1;entryDx=0;entryDy=0;" parent="1" edge="1">
          <mxGeometry width="50" height="50" relative="1" as="geometry">
            <mxPoint x="1740.57" y="509.5" as="sourcePoint" />
            <mxPoint x="1740.57" y="401.5" as="targetPoint" />
          </mxGeometry>
        </mxCell>
        <mxCell id="ndynWsvsj6m9hKPy0uNn-139" value="" style="endArrow=none;html=1;rounded=0;entryX=0.5;entryY=1;entryDx=0;entryDy=0;exitX=0.5;exitY=0;exitDx=0;exitDy=0;" parent="1" source="ndynWsvsj6m9hKPy0uNn-110" target="ndynWsvsj6m9hKPy0uNn-72" edge="1">
          <mxGeometry width="50" height="50" relative="1" as="geometry">
            <mxPoint x="2525.43" y="691" as="sourcePoint" />
            <mxPoint x="2525" y="581" as="targetPoint" />
          </mxGeometry>
        </mxCell>
        <mxCell id="ndynWsvsj6m9hKPy0uNn-140" value="" style="endArrow=none;html=1;rounded=0;entryX=0.5;entryY=1;entryDx=0;entryDy=0;exitX=0.5;exitY=0;exitDx=0;exitDy=0;" parent="1" source="ndynWsvsj6m9hKPy0uNn-96" edge="1">
          <mxGeometry width="50" height="50" relative="1" as="geometry">
            <mxPoint x="2512" y="492" as="sourcePoint" />
            <mxPoint x="2494.57" y="402" as="targetPoint" />
          </mxGeometry>
        </mxCell>
        <mxCell id="ndynWsvsj6m9hKPy0uNn-141" value="" style="endArrow=none;html=1;rounded=0;entryX=0.5;entryY=1;entryDx=0;entryDy=0;exitX=0.5;exitY=0;exitDx=0;exitDy=0;" parent="1" edge="1">
          <mxGeometry width="50" height="50" relative="1" as="geometry">
            <mxPoint x="2400" y="512.5" as="sourcePoint" />
            <mxPoint x="2399.57" y="402.5" as="targetPoint" />
          </mxGeometry>
        </mxCell>
        <mxCell id="ndynWsvsj6m9hKPy0uNn-142" value="" style="endArrow=none;html=1;rounded=0;entryX=0.5;entryY=1;entryDx=0;entryDy=0;exitX=0.5;exitY=0;exitDx=0;exitDy=0;" parent="1" edge="1">
          <mxGeometry width="50" height="50" relative="1" as="geometry">
            <mxPoint x="2305" y="512" as="sourcePoint" />
            <mxPoint x="2304.57" y="402" as="targetPoint" />
          </mxGeometry>
        </mxCell>
        <mxCell id="ndynWsvsj6m9hKPy0uNn-143" value="" style="endArrow=none;html=1;rounded=0;entryX=0.5;entryY=1;entryDx=0;entryDy=0;exitX=0.5;exitY=0;exitDx=0;exitDy=0;" parent="1" edge="1">
          <mxGeometry width="50" height="50" relative="1" as="geometry">
            <mxPoint x="2759.57" y="621" as="sourcePoint" />
            <mxPoint x="2759.57" y="553" as="targetPoint" />
          </mxGeometry>
        </mxCell>
        <mxCell id="ndynWsvsj6m9hKPy0uNn-144" value="" style="endArrow=none;html=1;rounded=0;entryX=0.5;entryY=1;entryDx=0;entryDy=0;exitX=0.5;exitY=0;exitDx=0;exitDy=0;" parent="1" edge="1">
          <mxGeometry width="50" height="50" relative="1" as="geometry">
            <mxPoint x="2668.57" y="621" as="sourcePoint" />
            <mxPoint x="2668.57" y="553" as="targetPoint" />
          </mxGeometry>
        </mxCell>
        <mxCell id="ndynWsvsj6m9hKPy0uNn-146" value="&lt;u&gt;Név&lt;br&gt;&lt;/u&gt;" style="rhombus;whiteSpace=wrap;html=1;" parent="1" vertex="1">
          <mxGeometry x="-524.5" y="354.5" width="55" height="55" as="geometry" />
        </mxCell>
        <mxCell id="ndynWsvsj6m9hKPy0uNn-148" value="&lt;u&gt;Azonosító&lt;/u&gt;" style="rhombus;whiteSpace=wrap;html=1;" parent="1" vertex="1">
          <mxGeometry x="146.5" y="354.5" width="55" height="55" as="geometry" />
        </mxCell>
        <mxCell id="ndynWsvsj6m9hKPy0uNn-149" value="&lt;u&gt;Név&lt;/u&gt;" style="rhombus;whiteSpace=wrap;html=1;" parent="1" vertex="1">
          <mxGeometry x="1083.5" y="354.5" width="55" height="55" as="geometry" />
        </mxCell>
        <mxCell id="ndynWsvsj6m9hKPy0uNn-150" value="&lt;u&gt;Azonosító&lt;/u&gt;" style="rhombus;whiteSpace=wrap;html=1;" parent="1" vertex="1">
          <mxGeometry x="1612.5" y="354.5" width="55" height="55" as="geometry" />
        </mxCell>
        <mxCell id="ndynWsvsj6m9hKPy0uNn-151" value="&lt;u&gt;Azonosító&lt;/u&gt;" style="rhombus;whiteSpace=wrap;html=1;" parent="1" vertex="1">
          <mxGeometry x="2181.5" y="354.5" width="55" height="55" as="geometry" />
        </mxCell>
        <mxCell id="ndynWsvsj6m9hKPy0uNn-157" style="edgeStyle=orthogonalEdgeStyle;rounded=0;orthogonalLoop=1;jettySize=auto;html=1;exitX=0.5;exitY=1;exitDx=0;exitDy=0;entryX=0.924;entryY=0.646;entryDx=0;entryDy=0;dashed=1;dashPattern=8 8;entryPerimeter=0;" parent="1" source="ndynWsvsj6m9hKPy0uNn-154" target="ndynWsvsj6m9hKPy0uNn-149" edge="1">
          <mxGeometry relative="1" as="geometry">
            <mxPoint x="1111" y="482" as="targetPoint" />
            <Array as="points">
              <mxPoint x="2038" y="750" />
              <mxPoint x="1134" y="750" />
            </Array>
          </mxGeometry>
        </mxCell>
        <mxCell id="ndynWsvsj6m9hKPy0uNn-154" value="Csapat" style="rhombus;whiteSpace=wrap;html=1;fontStyle=0;gradientColor=none;" parent="1" vertex="1">
          <mxGeometry x="2010" y="354.5" width="55" height="55" as="geometry" />
        </mxCell>
        <mxCell id="ndynWsvsj6m9hKPy0uNn-155" value="" style="endArrow=none;html=1;rounded=0;exitX=0.5;exitY=0;exitDx=0;exitDy=0;entryX=0.966;entryY=0.669;entryDx=0;entryDy=0;entryPerimeter=0;" parent="1" source="ndynWsvsj6m9hKPy0uNn-154" target="ndynWsvsj6m9hKPy0uNn-5" edge="1">
          <mxGeometry width="50" height="50" relative="1" as="geometry">
            <mxPoint x="1650" y="365" as="sourcePoint" />
            <mxPoint x="1919" y="146" as="targetPoint" />
          </mxGeometry>
        </mxCell>
        <mxCell id="ndynWsvsj6m9hKPy0uNn-160" style="edgeStyle=orthogonalEdgeStyle;rounded=0;orthogonalLoop=1;jettySize=auto;html=1;exitX=0.5;exitY=1;exitDx=0;exitDy=0;dashed=1;dashPattern=8 8;entryX=0.696;entryY=0.874;entryDx=0;entryDy=0;entryPerimeter=0;" parent="1" source="ndynWsvsj6m9hKPy0uNn-158" target="ndynWsvsj6m9hKPy0uNn-149" edge="1">
          <mxGeometry relative="1" as="geometry">
            <mxPoint x="1097" y="456" as="targetPoint" />
            <Array as="points">
              <mxPoint x="2852" y="801" />
              <mxPoint x="1122" y="801" />
            </Array>
          </mxGeometry>
        </mxCell>
        <mxCell id="ndynWsvsj6m9hKPy0uNn-158" value="Csapat" style="rhombus;whiteSpace=wrap;html=1;" parent="1" vertex="1">
          <mxGeometry x="2824" y="354.5" width="55" height="55" as="geometry" />
        </mxCell>
        <mxCell id="ndynWsvsj6m9hKPy0uNn-159" value="" style="endArrow=none;html=1;rounded=0;exitX=0.5;exitY=0;exitDx=0;exitDy=0;entryX=1;entryY=0.622;entryDx=0;entryDy=0;entryPerimeter=0;" parent="1" source="ndynWsvsj6m9hKPy0uNn-158" target="ndynWsvsj6m9hKPy0uNn-8" edge="1">
          <mxGeometry width="50" height="50" relative="1" as="geometry">
            <mxPoint x="2728" y="337" as="sourcePoint" />
            <mxPoint x="2547" y="134" as="targetPoint" />
          </mxGeometry>
        </mxCell>
        <mxCell id="ndynWsvsj6m9hKPy0uNn-163" style="edgeStyle=orthogonalEdgeStyle;rounded=0;orthogonalLoop=1;jettySize=auto;html=1;exitX=0.5;exitY=1;exitDx=0;exitDy=0;entryX=0.145;entryY=0.668;entryDx=0;entryDy=0;dashed=1;dashPattern=8 8;entryPerimeter=0;" parent="1" source="ndynWsvsj6m9hKPy0uNn-161" target="ndynWsvsj6m9hKPy0uNn-149" edge="1">
          <mxGeometry relative="1" as="geometry">
            <Array as="points">
              <mxPoint x="910" y="750" />
              <mxPoint x="1091" y="750" />
            </Array>
          </mxGeometry>
        </mxCell>
        <mxCell id="ndynWsvsj6m9hKPy0uNn-161" value="Csapat" style="rhombus;whiteSpace=wrap;html=1;" parent="1" vertex="1">
          <mxGeometry x="882" y="354.5" width="55" height="55" as="geometry" />
        </mxCell>
        <mxCell id="ndynWsvsj6m9hKPy0uNn-162" value="" style="endArrow=none;html=1;rounded=0;exitX=1;exitY=0.5;exitDx=0;exitDy=0;entryX=0.5;entryY=0;entryDx=0;entryDy=0;" parent="1" source="ndynWsvsj6m9hKPy0uNn-2" target="ndynWsvsj6m9hKPy0uNn-161" edge="1">
          <mxGeometry width="50" height="50" relative="1" as="geometry">
            <mxPoint x="664" y="138.5" as="sourcePoint" />
            <mxPoint x="926" y="325" as="targetPoint" />
          </mxGeometry>
        </mxCell>
        <mxCell id="ndynWsvsj6m9hKPy0uNn-166" style="edgeStyle=orthogonalEdgeStyle;rounded=0;orthogonalLoop=1;jettySize=auto;html=1;exitX=0.5;exitY=1;exitDx=0;exitDy=0;entryX=0.5;entryY=1;entryDx=0;entryDy=0;dashed=1;dashPattern=8 8;" parent="1" source="ndynWsvsj6m9hKPy0uNn-164" target="ndynWsvsj6m9hKPy0uNn-146" edge="1">
          <mxGeometry relative="1" as="geometry">
            <Array as="points">
              <mxPoint x="-78" y="801" />
              <mxPoint x="-497" y="801" />
            </Array>
          </mxGeometry>
        </mxCell>
        <mxCell id="ndynWsvsj6m9hKPy0uNn-164" value="Szponzor" style="rhombus;whiteSpace=wrap;html=1;" parent="1" vertex="1">
          <mxGeometry x="-106" y="354.5" width="55" height="55" as="geometry" />
        </mxCell>
        <mxCell id="ndynWsvsj6m9hKPy0uNn-167" style="edgeStyle=orthogonalEdgeStyle;rounded=0;orthogonalLoop=1;jettySize=auto;html=1;exitX=0.5;exitY=1;exitDx=0;exitDy=0;entryX=0.331;entryY=0.881;entryDx=0;entryDy=0;entryPerimeter=0;dashed=1;dashPattern=8 8;" parent="1" source="ndynWsvsj6m9hKPy0uNn-165" target="ndynWsvsj6m9hKPy0uNn-149" edge="1">
          <mxGeometry relative="1" as="geometry">
            <Array as="points">
              <mxPoint x="80" y="801" />
              <mxPoint x="1102" y="801" />
            </Array>
          </mxGeometry>
        </mxCell>
        <mxCell id="ndynWsvsj6m9hKPy0uNn-165" value="Csapat" style="rhombus;whiteSpace=wrap;html=1;strokeColor=default;" parent="1" vertex="1">
          <mxGeometry x="52" y="354.5" width="55" height="55" as="geometry" />
        </mxCell>
        <mxCell id="ndynWsvsj6m9hKPy0uNn-170" value="" style="endArrow=none;html=1;rounded=0;exitX=0.5;exitY=0;exitDx=0;exitDy=0;entryX=0;entryY=1;entryDx=0;entryDy=0;" parent="1" source="ndynWsvsj6m9hKPy0uNn-4" target="ndynWsvsj6m9hKPy0uNn-1" edge="1">
          <mxGeometry width="50" height="50" relative="1" as="geometry">
            <mxPoint x="464" y="141" as="sourcePoint" />
            <mxPoint x="1119" y="-119" as="targetPoint" />
          </mxGeometry>
        </mxCell>
        <mxCell id="ndynWsvsj6m9hKPy0uNn-171" value="" style="endArrow=none;html=1;rounded=0;entryX=1;entryY=1;entryDx=0;entryDy=0;exitX=0.5;exitY=0;exitDx=0;exitDy=0;" parent="1" source="ndynWsvsj6m9hKPy0uNn-5" target="ndynWsvsj6m9hKPy0uNn-1" edge="1">
          <mxGeometry width="50" height="50" relative="1" as="geometry">
            <mxPoint x="-323" y="119" as="sourcePoint" />
            <mxPoint x="978" y="-228" as="targetPoint" />
          </mxGeometry>
        </mxCell>
        <mxCell id="ndynWsvsj6m9hKPy0uNn-173" value="" style="endArrow=none;html=1;rounded=0;exitX=0.5;exitY=0;exitDx=0;exitDy=0;entryX=0.688;entryY=0.971;entryDx=0;entryDy=0;entryPerimeter=0;" parent="1" source="ndynWsvsj6m9hKPy0uNn-3" target="ndynWsvsj6m9hKPy0uNn-1" edge="1">
          <mxGeometry width="50" height="50" relative="1" as="geometry">
            <mxPoint x="671" y="195" as="sourcePoint" />
            <mxPoint x="1203" y="-114" as="targetPoint" />
          </mxGeometry>
        </mxCell>
        <mxCell id="icLCaWjjbzNSAwzQ1LPa-1" value="" style="endArrow=none;html=1;rounded=0;entryX=0.294;entryY=0.959;entryDx=0;entryDy=0;exitX=0.5;exitY=0;exitDx=0;exitDy=0;entryPerimeter=0;" parent="1" source="ndynWsvsj6m9hKPy0uNn-164" target="ndynWsvsj6m9hKPy0uNn-4" edge="1">
          <mxGeometry width="50" height="50" relative="1" as="geometry">
            <mxPoint x="-73" y="450" as="sourcePoint" />
            <mxPoint x="-23" y="400" as="targetPoint" />
          </mxGeometry>
        </mxCell>
        <mxCell id="icLCaWjjbzNSAwzQ1LPa-2" value="" style="endArrow=none;html=1;rounded=0;entryX=1;entryY=1;entryDx=0;entryDy=0;exitX=0.5;exitY=0;exitDx=0;exitDy=0;" parent="1" source="ndynWsvsj6m9hKPy0uNn-165" target="ndynWsvsj6m9hKPy0uNn-4" edge="1">
          <mxGeometry width="50" height="50" relative="1" as="geometry">
            <mxPoint x="-68" y="365" as="sourcePoint" />
            <mxPoint x="-34" y="185" as="targetPoint" />
          </mxGeometry>
        </mxCell>
        <mxCell id="icLCaWjjbzNSAwzQ1LPa-3" value="&lt;u&gt;Szp_cs_id&lt;br&gt;&lt;/u&gt;" style="rhombus;whiteSpace=wrap;html=1;" parent="1" vertex="1">
          <mxGeometry x="-165" y="354.5" width="55" height="55" as="geometry" />
        </mxCell>
        <mxCell id="icLCaWjjbzNSAwzQ1LPa-4" value="" style="endArrow=none;html=1;rounded=0;entryX=0;entryY=1;entryDx=0;entryDy=0;exitX=0.5;exitY=0;exitDx=0;exitDy=0;" parent="1" source="icLCaWjjbzNSAwzQ1LPa-3" target="ndynWsvsj6m9hKPy0uNn-4" edge="1">
          <mxGeometry width="50" height="50" relative="1" as="geometry">
            <mxPoint x="250" y="450" as="sourcePoint" />
            <mxPoint x="300" y="400" as="targetPoint" />
          </mxGeometry>
        </mxCell>
        <mxCell id="LrNQVv9pRJI2sjxJXHOJ-1" value="" style="endArrow=none;dashed=1;html=1;rounded=0;" edge="1" parent="1">
          <mxGeometry width="50" height="50" relative="1" as="geometry">
            <mxPoint x="-94.5" y="390" as="sourcePoint" />
            <mxPoint x="-62.5" y="390" as="targetPoint" />
          </mxGeometry>
        </mxCell>
        <mxCell id="LrNQVv9pRJI2sjxJXHOJ-2" value="" style="endArrow=none;dashed=1;html=1;rounded=0;" edge="1" parent="1">
          <mxGeometry width="50" height="50" relative="1" as="geometry">
            <mxPoint x="63.5" y="390" as="sourcePoint" />
            <mxPoint x="95.5" y="390" as="targetPoint" />
          </mxGeometry>
        </mxCell>
        <mxCell id="LrNQVv9pRJI2sjxJXHOJ-3" value="" style="endArrow=none;dashed=1;html=1;rounded=0;" edge="1" parent="1">
          <mxGeometry width="50" height="50" relative="1" as="geometry">
            <mxPoint x="893.5" y="389" as="sourcePoint" />
            <mxPoint x="925.5" y="389" as="targetPoint" />
          </mxGeometry>
        </mxCell>
        <mxCell id="LrNQVv9pRJI2sjxJXHOJ-4" value="" style="endArrow=none;dashed=1;html=1;rounded=0;" edge="1" parent="1">
          <mxGeometry width="50" height="50" relative="1" as="geometry">
            <mxPoint x="2835.5" y="390" as="sourcePoint" />
            <mxPoint x="2867.5" y="390" as="targetPoint" />
          </mxGeometry>
        </mxCell>
        <mxCell id="LrNQVv9pRJI2sjxJXHOJ-5" value="" style="endArrow=none;dashed=1;html=1;rounded=0;" edge="1" parent="1">
          <mxGeometry width="50" height="50" relative="1" as="geometry">
            <mxPoint x="2021.5" y="390" as="sourcePoint" />
            <mxPoint x="2053.5" y="390" as="targetPoint" />
          </mxGeometry>
        </mxCell>
      </root>
    </mxGraphModel>
  </diagram>
</mxfile>
